:SAMPLES-PER-SECOND 30
:FULLY-SPECIFIED
:DEGREES
136
root  -4.7741 40.9353 0.0684117 -0.00927734 -72.9989 4.40948
RightUpLeg  4.13312 -2.01975 -0.830132
RightLeg  -7.42907 -34.9928 5.03361
RightFoot  -0.796471 -0.224443 2.4335
RightToes  -3.13588e-008 1.75238e-005 3.56266e-009
Spine  -1.56776 2.95658 -4.37297
Spine1  -5.41141 2.78395 3.43779
HEad  -1.16693 -4.97935 3.26007
LeftShoulder1  0.463998 1.45238 -15.815
LeftArm  -60.6888 -53.8385 -27.1185
LeftForeArm  151.037 -72.1674 -147.136
LeftHand  -0.645397 -2.58112 9.61459
RightShoulder  1.84452 3.26461 20.9592
RightArm  -22.675 1.04381 35.9144
RightForeArm  19.1627 55.0172 14.4837
RightHand  -0.361977 7.40932 -3.63588
LeftUpLeg  -0.955082 0.172124 2.86398
LeftLeg  -4.48884 -0.16091 -0.125314
LeftFoot  1.91953 0.452143 -4.03888
LeftToes  4.76812e-008 1.47286e-008 1.3089e-009
137
root  -4.77241 40.9337 0.0805991 0.0394897 -72.4102 4.3486
RightUpLeg  4.29946 -2.06351 -0.839292
RightLeg  -7.69572 -35.4929 5.24798
RightFoot  -0.761808 -0.225515 2.45013
RightToes  -3.13588e-008 1.75238e-005 3.56266e-009
Spine  -2.03237 2.88581 -3.95057
Spine1  -4.96831 2.73099 3.18364
HEad  -0.980848 -5.29528 3.4391
LeftShoulder1  0.492653 1.36683 -16.2904
LeftArm  -57.2904 -52.2927 -30.8497
LeftForeArm  131.762 -77.71 -126.587
LeftHand  -0.599623 -2.66054 8.85579
RightShoulder  1.88025 3.37059 21.0659
RightArm  -23.3259 0.792803 36.0006
RightForeArm  18.5447 51.5193 12.6913
RightHand  -0.364846 7.09448 -3.7367
LeftUpLeg  -1.131 0.141194 2.82113
LeftLeg  -4.28338 -0.730919 -0.0907075
LeftFoot  1.87335 0.445845 -3.95171
LeftToes  4.76812e-008 1.47286e-008 1.3089e-009
138
root  -4.77399 40.9321 0.092435 -0.166382 -71.9792 4.46335
RightUpLeg  4.4523 -2.12371 -0.881769
RightLeg  -7.71305 -35.8684 5.26855
RightFoot  -0.772431 -0.227789 2.48478
RightToes  -3.13588e-008 1.75238e-005 3.56266e-009
Spine  -2.12611 2.80282 -3.3301
Spine1  -5.03533 2.69898 2.58378
HEad  -0.669799 -5.17066 3.48198
LeftShoulder1  0.579586 1.02365 -16.6063
LeftArm  -55.5121 -50.6145 -32.4761
LeftForeArm  77.2504 -79.5365 -71.741
LeftHand  -0.686572 -3.02833 9.70702
RightShoulder  1.86441 3.23254 21.4132
RightArm  -23.4112 1.08781 36.4441
RightForeArm  18.1094 49.0406 11.5737
RightHand  -0.499141 7.09363 -4.98834
LeftUpLeg  -1.08034 0.149382 2.76483
LeftLeg  -4.28413 -1.16412 -0.124263
LeftFoot  1.91925 0.439255 -3.85662
LeftToes  4.76812e-008 1.47286e-008 1.3089e-009
139
root  -4.7587 40.9306 0.0945589 -0.351654 -71.5114 4.63586
RightUpLeg  4.47763 -2.16778 -0.938507
RightLeg  -7.68273 -36.2786 5.26184
RightFoot  -0.821402 -0.229921 2.51659
RightToes  -3.13588e-008 1.75238e-005 3.56266e-009
Spine  -2.71681 2.70496 -3.00652
Spine1  -4.50577 2.60701 2.46872
HEad  -0.303029 -5.80867 3.35923
LeftShoulder1  0.682675 0.643748 -17.1819
LeftArm  -54.8129 -50.4509 -33.6562
LeftForeArm  38.0337 -71.3853 -30.805
LeftHand  -0.595328 -2.33307 9.12349
RightShoulder  1.82126 3.11097 21.2613
RightArm  -24.0035 1.36108 37.1828
RightForeArm  17.7612 47.2623 10.8522
RightHand  -0.485055 7.00687 -4.8851
LeftUpLeg  -1.12627 0.21998 2.7414
LeftLeg  -4.33708 -1.67543 -0.251261
LeftFoot  2.04124 0.437807 -3.83846
LeftToes  4.76812e-008 1.47286e-008 1.3089e-009
140
root  -4.73149 40.9252 0.0873316 -0.174408 -70.8099 4.3754
RightUpLeg  4.5961 -2.18799 -0.855475
RightLeg  -7.78945 -36.9654 5.41029
RightFoot  -0.803805 -0.228924 2.4992
RightToes  -3.13588e-008 1.75238e-005 3.56266e-009
Spine  -2.8615 2.25126 -2.87857
Spine1  -4.48273 2.12119 2.66254
HEad  0.0217025 -4.95537 3.32996
LeftShoulder1  0.626957 0.847587 -16.8886
LeftArm  -55.2586 -51.0101 -35.0553
LeftForeArm  25.3992 -58.6722 -16.3654
LeftHand  -0.469777 -1.49765 8.09997
RightShoulder  1.87255 3.27446 21.3582
RightArm  -24.2951 1.84916 37.863
RightForeArm  17.7414 45.5894 10.1911
RightHand  -0.418217 7.1571 -4.21672
LeftUpLeg  -1.30353 0.199842 2.76761
LeftLeg  -4.11613 -2.32461 -0.183751
LeftFoot  2.04298 0.433747 -3.77673
LeftToes  4.76812e-008 1.47286e-008 1.3089e-009
141
root  -4.71758 40.925 0.0917798 -0.404907 -70.7249 4.44861
RightUpLeg  4.63911 -2.17425 -0.86635
RightLeg  -7.48259 -37.0827 5.15627
RightFoot  -0.851877 -0.242582 2.70858
RightToes  -3.13588e-008 1.75238e-005 3.56266e-009
Spine  -2.7919 2.33473 -2.568
Spine1  -4.69241 2.20162 2.55299
HEad  0.285982 -5.52944 3.4519
LeftShoulder1  0.6916 0.562502 -16.794
LeftArm  -56.7529 -51.9458 -35.5061
LeftForeArm  21.2194 -44.2141 -9.30234
LeftHand  -0.587885 -1.69253 9.78701
RightShoulder  1.81555 3.09518 21.2332
RightArm  -23.811 1.90899 38.1472
RightForeArm  17.5213 44.4944 9.79875
RightHand  -0.475438 7.06075 -4.77679
LeftUpLeg  -1.07588 0.194534 2.72355
LeftLeg  -4.28241 -2.44962 -0.171735
LeftFoot  2.11122 0.428333 -3.69119
LeftToes  4.76812e-008 1.47286e-008 1.3089e-009
